<?xml version="1.0" standalone="no"?>
<!DOCTYPE svg PUBLIC "-//W3C//DTD SVG 1.1//EN" "http://www.w3.org/Graphics/SVG/1.1/DTD/svg11.dtd" >
<svg xmlns="http://www.w3.org/2000/svg">
<metadata>
Created by FontForge 20120731 at Sat Apr 22 16:33:06 2017
 By admin
</metadata>
<defs>
<font id="iconfont" horiz-adv-x="1024" >
  <font-face 
    font-family="iconfont"
    font-weight="500"
    font-stretch="normal"
    units-per-em="1024"
    panose-1="2 0 6 3 0 0 0 0 0 0"
    ascent="896"
    descent="-128"
    x-height="792"
    bbox="-0.00714286 -165 1184 896"
    underline-thickness="0"
    underline-position="0"
    unicode-range="U+0078-E7A9"
  />
<missing-glyph 
 />
    <glyph glyph-name=".notdef" 
 />
    <glyph glyph-name=".notdef" 
 />
    <glyph glyph-name=".null" horiz-adv-x="0" 
 />
    <glyph glyph-name="nonmarkingreturn" horiz-adv-x="341" 
 />
    <glyph glyph-name="x" unicode="x" horiz-adv-x="1001" 
d="M281 543q-27 -1 -53 -1h-83q-18 0 -36.5 -6t-32.5 -18.5t-23 -32t-9 -45.5v-76h912v41q0 16 -0.5 30t-0.5 18q0 13 -5 29t-17 29.5t-31.5 22.5t-49.5 9h-133v-97h-438v97zM955 310v-52q0 -23 0.5 -52t0.5 -58t-10.5 -47.5t-26 -30t-33 -16t-31.5 -4.5q-14 -1 -29.5 -0.5
t-29.5 0.5h-32l-45 128h-439l-44 -128h-29h-34q-20 0 -45 1q-25 0 -41 9.5t-25.5 23t-13.5 29.5t-4 30v167h911zM163 247q-12 0 -21 -8.5t-9 -21.5t9 -21.5t21 -8.5q13 0 22 8.5t9 21.5t-9 21.5t-22 8.5zM316 123q-8 -26 -14 -48q-5 -19 -10.5 -37t-7.5 -25t-3 -15t1 -14.5
t9.5 -10.5t21.5 -4h37h67h81h80h64h36q23 0 34 12t2 38q-5 13 -9.5 30.5t-9.5 34.5q-5 19 -11 39h-368zM336 498v228q0 11 2.5 23t10 21.5t20.5 15.5t34 6h188q31 0 51.5 -14.5t20.5 -52.5v-227h-327z" />
    <glyph glyph-name="search" unicode="&#xe6ac;" 
d="M1002 -96q-2 5 -3 7l-4 6q-3 4 -10 11q-10 12 -31 34q-26 27 -96 98q-69 70 -95 97q-20 21 -30 32q-5 6 -7 8q1 -1 3 -5q1 -6 0 -9t-7 -16q62 60 95.5 139.5t33.5 167.5q0 114 -55.5 211.5t-151 154t-208 56.5t-208.5 -56.5t-151.5 -154t-55.5 -212t55.5 -212t151.5 -154
t208 -56.5q8 0 16 1q5 0 15 1q17 2 23 2q13 0 47 10l8 2q13 3 26 7q7 3 11 4q10 3 15 12.5t2 19.5t-12.5 15t-19.5 2q-4 -2 -11 -4q-13 -4 -24 -7l-8 -2q-28 -8 -34 -8q-9 0 -28 -2q-9 -1 -13 -1q-7 -1 -13 -1q-99 0 -183 50t-132.5 135.5t-48.5 186t48.5 186t132.5 135.5
t183 50t183 -50t133 -135.5t49 -185.5q0 -78 -29.5 -147.5t-84.5 -122.5q-7 -13 -8 -16.5t1 -9.5q2 -4 3 -7q1 -2 4 -5q3 -5 9 -11q11 -12 31 -34q26 -27 95.5 -97.5t95.5 -97.5q20 -21 30 -32q5 -6 7 -8q-1 2 -2 6q-2 6 -1 9t9 16q-8 -7 -9 -17.5t6 -18.5t17 -9t18 6
q8 13 9 16.5t0 9.5z" />
    <glyph glyph-name="download" unicode="&#xe64c;" 
d="M927.5 211q-12.5 0 -21 -8.5t-8.5 -20.5v-204h-773v204q0 12 -8.5 20.5t-21 8.5t-21 -8.5t-8.5 -20.5v-233q0 -12 8.5 -20.5t20.5 -8.5v0h832q13 0 21.5 8.5t8.5 20.5v233q0 12 -8.5 20.5t-21 8.5zM356 368l130 -149v476q0 16 11.5 26.5t28 10.5t28 -10.5t11.5 -26.5
v-474l129 147q12 11 28.5 11t28 -11t11.5 -26.5t-12 -26.5l-195 -222q-12 -12 -30 -11q-18 -1 -30 11l-195 222q-12 11 -12 26.5t12 26.5t28 11t28 -11z" />
    <glyph glyph-name="music" unicode="&#xe70f;" 
d="M921 765l-563 -199v-493q-43 52 -110 52q-60 0 -102.5 -42.5t-42.5 -103t42.5 -102.5t102.5 -42q59 0 101 41.5t43 100.5h1v565l494 175v-456q-43 51 -111 51q-60 0 -102.5 -42.5t-42.5 -102.5t42.5 -102.5t102.5 -42.5t102.5 42.5t42.5 102.5v8v0v590v0zM247.5 -131
q-45.5 0 -78 32.5t-32.5 78t32.5 78t78 32.5t78 -32.5t32.5 -78t-32.5 -78t-78 -32.5zM776.5 56q-45.5 0 -78 32.5t-32.5 78.5t32.5 78.5t78 32.5t78 -32.5t32.5 -78.5t-32.5 -78.5t-78 -32.5z" />
    <glyph glyph-name="paihang" unicode="&#xe604;" 
d="M628 765h-220v-793h220v793zM562 38h-88v661h88v-661zM276 479h-220v-507h220v507zM210 38h-88v375h88v-375zM56 -160h924v66h-924v-66zM760 479v-507h220v507h-220zM914 38h-88v375h88v-375z" />
    <glyph glyph-name="qianjin" unicode="&#xe692;" 
d="M512 -148q-91 0 -174 35.5t-143 95.5t-95.5 143t-35.5 174t35.5 174t95.5 143t143 95.5t174 35.5t174 -35.5t143 -95.5t95.5 -143t35.5 -174t-35.5 -174t-95.5 -143t-143 -95.5t-174 -35.5zM512 684q-104 0 -192.5 -51.5t-140 -140t-51.5 -192.5t51.5 -192.5t140 -140
t192.5 -51.5t192.5 51.5t140 140t51.5 192.5t-51.5 192.5t-140 140t-192.5 51.5zM733 311v0q-3 6 -7 10v0v0l-159 160q-9 9 -22.5 9t-23 -9t-9.5 -22.5t10 -22.5l103 -104h-305q-13 0 -22.5 -9.5t-9.5 -22.5t9.5 -22.5t22.5 -9.5h307l-106 -105q-10 -9 -10 -22.5t9.5 -23
t22.5 -9.5t23 10l160 158q15 15 7 35z" />
    <glyph glyph-name="shunxu" unicode="&#xe622;" 
d="M392.5 757q-13.5 0 -21.5 -6.5t-9 -12.5l-2 -7v-731l-238 427l-2.5 2.5t-5.5 4t-9 4t-12 1t-14 -4.5q-10 -6 -13.5 -15t-1.5 -15l1 -6q1 -1 7 -12q3 -5 9 -16t9 -16q18 -33 27 -49q6 -11 18 -32t15 -28q7 -11 19.5 -33.5t18.5 -33.5q7 -12 20 -35.5t19 -34.5
q7 -12 19.5 -34.5t19 -34t18.5 -33t16 -29.5q25 -45 29 -52q12 -22 21 -37q1 -2 3 -5.5t2 -4.5l1 -1.5t1 -2.5q13 -25 36 -25q12 0 20 5t10 10l1 5v862q0 3 -1 7.5t-9 11.5t-21.5 7zM955 203l-294 527v0v1q-1 3 -3 7.5t-9.5 11.5t-18.5 7q-13 0 -21.5 -6.5t-10.5 -12.5
l-1 -7v-862q0 -3 1 -7t9.5 -11.5t20.5 -7.5q13 0 21 6.5t10 13.5l2 6v731l238 -427l2.5 -2.5t6.5 -5t10 -5.5t12.5 -2t14.5 3q12 7 14.5 17t-0.5 17z" />
    <glyph glyph-name="shezhi" unicode="&#xe611;" 
d="M414 54l-8 2q-71 23 -127 73l-6 6l4 7q15 25 15 54t-14.5 54t-39.5 39.5t-54 14.5h-9l-1 8q-8 36 -8 73t8 73l1 9h9q29 0 54 14.5t39.5 39t14.5 53.5t-15 54l-4 8l6 5q56 51 127 73l8 3l4 -7q14 -25 39.5 -39.5t54 -14.5t53.5 14.5t40 39.5l4 7l8 -3q71 -22 126 -73l7 -5
l-5 -8q-14 -25 -14 -54t14.5 -53.5t39.5 -39t54 -14.5h8l2 -9q8 -36 8 -73t-8 -73l-2 -8h-8q-29 0 -54 -14.5t-39.5 -39.5t-14.5 -54t14 -54l5 -7l-7 -6q-55 -50 -126 -73l-8 -2l-4 7q-15 25 -40 39.5t-53.5 14.5t-54 -14.5t-39.5 -39.5l-4 -7v0zM511 136q32 0 60.5 -15.5
t46.5 -41.5q59 20 106 60q-15 29 -14 61.5t17 60t43.5 44.5t59.5 20q6 30 6 60.5t-6 60.5q-32 2 -59 19t-43.5 45t-17.5 60.5t14 60.5q-47 41 -106 61q-18 -27 -46.5 -42t-60.5 -15t-60.5 15t-46.5 42q-58 -20 -105 -61q14 -28 13 -60.5t-17 -60.5t-43.5 -45t-59.5 -19
q-6 -30 -6 -60.5t6 -60.5q32 -3 59.5 -20t43.5 -44.5t17 -60t-13 -61.5q47 -40 105 -60q18 26 46.5 41.5t60.5 15.5v0zM511 136zM511 278q-44 0 -75.5 31.5t-31.5 76t31.5 75.5t76 31t75.5 -31t31 -75.5t-31 -76t-76 -31.5v0zM511 472q-35 0 -60.5 -25.5t-25.5 -61t25.5 -61
t61 -25.5t61 25.5t25.5 61t-25.5 61t-61.5 25.5v0zM511 472z" />
    <glyph glyph-name="xinxi" unicode="&#xe668;" 
d="M265 225h-25h25zM192 266v32v-32zM298 408l73 1q14 0 24.5 10.5t10.5 26t-10.5 26t-24.5 10.5h-73q-15 0 -25.5 -11t-10.5 -26t10.5 -26t25.5 -11zM729 482h-73q-15 0 -25.5 -11t-10.5 -26t10.5 -26t25.5 -11l73 1q15 0 25.5 10.5t10.5 26t-10.5 26t-25.5 10.5zM908 679
q-5 26 -24.5 43t-45.5 17h-654q-27 -3 -45.5 -23.5t-19.5 -48.5v-449q3 -28 23.5 -47.5t48.5 -19.5h38v0h106q15 0 25.5 11t10.5 26t-10.5 26t-25.5 11h-144v396q1 27 9 35t36 10h537h17h-8h54v-50v49l-46 1q30 -1 38 -10.5t8 -44.5l1 -386h-324q-20 0 -30 -17l-176 -178
q-10 -11 -10 -26.5t10.5 -26t25.5 -10.5t25 11l171 173h270v0h38q27 0 47 18t24 45v465zM191 665v-35v35l19 1zM550 409q15 0 25.5 10.5t10.5 26t-10.5 26t-25.5 10.5h-73q-15 0 -25.5 -11t-10.5 -26t10.5 -26t25.5 -11zM192 266v-41h48q-30 1 -38.5 8t-9.5 33zM794 225h-29
h29zM836 276v22v-22zM836 276q0 -32 -7.5 -41t-34.5 -10h42v51z" />
    <glyph glyph-name="tuichu" unicode="&#xe61d;" 
d="M325 211q9 -8 9 -20t-8.5 -20t-20 -8.5t-19.5 8.5l-36 35l-122 121v0q-12 11 -12 26t12 25l126 125l35 35q8 8 19.5 8t20 -8.5t8.5 -20t-9 -19.5l-35 -35l-83 -83h246h49v0h18h49q12 1 20 -7.5t8 -20t-8 -20t-20 -8.5h-49h-280v0h-32l79 -78zM908 520l-1 124v47l1 3
q0 11 -8.5 19.5t-20.5 8.5v0h-49h-202h-202h-49q-12 0 -20 -8.5t-8 -19.5v-1v-1v0v-31v-50q0 -11 8 -19.5t19.5 -8.5t20 8.5t8.5 19.5v50v4h21h125v0h77h77v0h125h21v-21v-116v-0.5v-0.5v-50v-118v-119v-49v-0.5v-0.5v-116v-22h-21h-202h-202h-21v12v50q0 11 -8.5 19.5
t-20 8.5t-19.5 -8.5t-8 -19.5v-11v-1v-49v-28v-1v0v-3v0q1 -10 9 -17.5t19 -7.5h49h125v0h77h77v0h125h47h1h1q12 0 20.5 8.5t8.5 19.5v2l-1 1v47l1 124v0v77v78v0v6v6v0v77v78v0z" />
    <glyph glyph-name="fenlei" unicode="&#xe72f;" 
d="M403 829h-256q-33 0 -56.5 -23.5t-23.5 -56.5v-254q0 -34 23.5 -57t56.5 -23h256q33 0 56.5 23t23.5 57v254q0 33 -23.5 56.5t-56.5 23.5v0zM879 829h-256q-34 0 -57.5 -23.5t-23.5 -56.5v-254q0 -34 23.5 -57t57.5 -23h256q33 0 56.5 23t23.5 57v254q0 33 -23.5 56.5
t-56.5 23.5v0zM403 353h-256q-33 0 -56.5 -23t-23.5 -57v-254q0 -33 23.5 -56.5t56.5 -23.5h256q33 0 56.5 23.5t23.5 56.5v254q0 34 -23.5 57t-56.5 23v0zM879 353h-256q-34 0 -57.5 -23t-23.5 -57v-254q0 -33 23.5 -56.5t57.5 -23.5h256q33 0 56.5 23.5t23.5 56.5v254
q0 33 -23.5 56.5t-56.5 23.5v0zM879 353z" />
    <glyph glyph-name="gengduo" unicode="&#xe637;" 
d="M229 558h566q15 0 25.5 12t10.5 28.5t-10.5 28.5t-25.5 12h-566q-15 0 -26 -12t-11 -28.5t11 -28.5t26 -12v0zM795 431h-566q-15 0 -26 -12t-11 -29t11 -29t26 -12h566q15 0 25.5 12t10.5 29t-10.5 29t-25.5 12v0zM795 222h-566q-15 0 -26 -12t-11 -28.5t11 -28.5t26 -12
h566q15 0 25.5 12t10.5 28.5t-10.5 28.5t-25.5 12v0z" />
    <glyph glyph-name="vip" unicode="&#xe633;" 
d="M953 525l-407 -549q-12 -19 -34 -19t-34 19l-407 549q-13 20 -2 41l221 223q11 22 36 22h367q24 0 36 -21l225 -224q12 -21 -1 -41v0zM510 67l156 459h-309l153 -459v0zM473 50l-159 476h-194l353 -476v0zM326 770l-201 -203h194l153 203h-146v0zM369 567h291l-146 192
l-145 -192v0zM693 770h-137l155 -203h-1h188l-205 203v0zM709 526l-164 -484l359 484h-195v0zM709 526z" />
    <glyph glyph-name="yifu" unicode="&#xe7a9;" horiz-adv-x="1040" 
d="M743 -57h-462q-38 0 -64.5 26.5t-26.5 63.5v296q-19 7 -33 21l-131 131q-26 26 -26 63q0 38 27 64l176 176q12 21 32.5 33t45.5 12h96q6 0 12 -4l7 -3q48 -27 116 -27t116 27l7 3q5 4 12 4h96q3 0 6 -1q40 2 68 -26l181 -181q26 -26 26 -63.5t-26 -63.5l-131 -130
q-14 -15 -33 -21v-310q0 -37 -26.5 -63.5t-64.5 -26.5zM281 779q-25 0 -37 -21q-1 -4 -4 -6l-179 -179q-12 -12 -12 -28.5t12 -28.5l131 -131q10 -10 25 -12q9 -1 15.5 -8t6.5 -16v-316q0 -17 12 -29t30 -12h462q17 0 29 12t12 29v329q0 10 6.5 17t16.5 8q15 1 25 12
l131 130q12 12 12 29t-12 29l-181 180q-13 13 -32 12h-5h-92h-1q-61 -34 -140 -34t-140 33l-2 1h-89z" />
    <glyph glyph-name="zhuanfa" unicode="&#xe606;" 
d="M846 -94h-714q-54 0 -92 38t-38 92v714q0 54 38 92t92 38h357v-65h-357q-27 0 -46 -19t-19 -46v-714q0 -27 19 -46t46 -19h714q27 0 46 19t19 46v454h64v-454q0 -54 -38 -92t-91 -38zM993 717l-163 163l-49 -50l112 -113l-144 1q-115 -12 -197 -94t-94 -197h66
q11 88 74 150.5t151 73.5l259 2v64h-15z" />
    <glyph glyph-name="love" unicode="&#xe66a;" 
d="M887 653q-19 24 -31 33l-3.5 3.5l-4.5 4.5q-53 51 -126 51q-103 0 -211 -106q-107 106 -210 106q-74 0 -126 -51l-4.5 -4.5l-3.5 -3.5q-12 -9 -31 -33q-74 -93 -60 -191q7 -48 33.5 -98.5t61.5 -92t80 -82.5t84 -70t77.5 -54.5t57.5 -36.5t28 -15l13 -7l14 7q8 4 27 15
t58 36.5t78 54.5t84 70t80 82.5t61.5 92t33.5 98.5q14 98 -60 191zM893 470q-7 -52 -43.5 -109t-81.5 -101t-100 -86.5t-91.5 -66t-65.5 -38.5q-28 15 -64.5 38.5t-92 66t-100 86.5t-81 101t-43.5 109q-13 92 75 176q4 5 11.5 12.5t32 20t52.5 12.5q87 0 189 -111l21 -23
l22 23q102 111 189 111q27 0 52 -12.5t32.5 -20t11.5 -12.5q88 -84 75 -176z" />
    <glyph glyph-name="shipin" unicode="&#xe62e;" 
d="M927 587q0 20 -10.5 33.5t-26.5 13.5q-30 0 -48 -14l-142 -105v28.5v19.5v6q0 33 -24.5 56.5t-57.5 23.5h-441q-33 0 -56.5 -23.5t-23.5 -56.5v-370q0 -33 23.5 -56.5t56.5 -23.5h449q20 0 35 8t22.5 20t11.5 24t5 21v8v52l142 -102q12 -12 28 -13.5t29 5.5q12 4 20 17
t8 29v399zM625 218q0 -11 -7 -18t-17 -7h-406q-10 0 -17.5 7t-7.5 18v329q0 10 7.5 17t17.5 7h406q10 0 17 -7t7 -17v-329zM700 349v63l3 3l149 112v-289z" />
    <glyph glyph-name="houtui" unicode="&#xe6f2;" horiz-adv-x="1025" 
d="M513 -115h-2q-232 0 -371 135.5t-140 362.5t138 363t373 137q233 0 372.5 -135.5t140.5 -362.5q0 -216 -128 -352q-139 -147 -383 -148zM860 67q115 122 115 319q-1 204 -126.5 326t-335.5 122q-212 -1 -338 -123.5t-126 -327.5q1 -204 127 -326.5t335 -122.5h2
q222 0 347 133zM473 395l129 -129q7 -7 7 -17.5t-7 -17.5t-17.5 -7t-17.5 7l-147 147q-7 7 -7 17.5t7 17.5h1v0l147 147q7 8 17.5 8t17.5 -7.5t7 -17.5t-7 -18z" />
    <glyph glyph-name="diantai" unicode="&#xe613;" 
d="M784 693h-452l202 117q13 8 17 23t-3.5 28t-22.5 17t-28 -3l-291 -168q-10 -6 -15 -16q-81 -13 -135.5 -75.5t-54.5 -146.5v-372q0 -93 65.5 -158.5t158.5 -65.5h559q93 0 158.5 65.5t65.5 158.5v372q0 93 -65.5 158.5t-158.5 65.5v0zM933 115q0 -69 -49 -118t-119 -49
h-522q-69 0 -118 49t-49 118v336q0 69 49 118.5t118 49.5h522q70 0 119 -49.5t49 -118.5v-336v0zM933 115zM542 208q-16 0 -27 -10.5t-11 -26t11 -26.5t26.5 -11t26.5 11t11 26.5t-11 26t-26 10.5v0zM542 208zM803 208h-131q-15 0 -26 -10.5t-11 -26t11 -26.5t26 -11h131
q15 0 26 11t11 26.5t-11 26t-26 10.5v0zM803 208zM803 432h-131q-15 0 -26 -11t-11 -26.5t11 -26t26 -10.5h131q15 0 26 10.5t11 26t-11 26.5t-26 11v0zM803 432zM542 432q-16 0 -27 -11t-11 -26.5t11 -26t26.5 -10.5t26.5 10.5t11 26t-11 26.5t-26 11v0zM542 432zM299 432
q-61 0 -105 -43.5t-44 -105.5t44 -105.5t105.5 -43.5t105 43.5t43.5 105.5t-43.5 105.5t-105.5 43.5v0zM299 190q-38 0 -65.5 27t-27.5 66t27.5 66t66 27t66 -27t27.5 -66t-27.5 -66t-66.5 -27v0zM299 190z" />
    <glyph glyph-name="yinyue1" unicode="&#xe722;" 
d="M512 -64q-91 0 -174 35.5t-143 95.5t-95.5 143t-35.5 174t35.5 174t95.5 143t143 95.5t174 35.5t174 -35.5t143 -95.5t95.5 -143t35.5 -174t-35.5 -174t-95.5 -143t-143 -95.5t-174 -35.5zM512 768q-104 0 -192.5 -51.5t-140 -140t-51.5 -192.5t51.5 -192.5t140 -140
t192.5 -51.5t192.5 51.5t140 140t51.5 192.5t-51.5 192.5t-140 140t-192.5 51.5zM718 338.5q-8 -5.5 -11.5 -3.5t-4.5 7.5t2 18.5q5 20 -2 33.5t-27 25.5q-22 13 -34 33.5t-19 36.5q-8 15 -15 14.5t-10 -8.5l-26 -69q-4 -10 -5 -15l-45 -118l-26 -70q-4 -12 -14 -25
t-27 -21.5t-40 -10.5t-54 7q-30 10 -49.5 31t-26 44.5t2 45.5t34.5 34t50 11q25 -1 46 -8q21 -6 35.5 -15.5t20.5 -15.5l60 161l1 -1q13 36 43 115q6 15 17 21.5t24 2.5q12 -2 16 -10q5 -9 8 -22t8.5 -30t19.5 -36q10 -17 20 -26l18 -18q8 -7 15 -17q8 -10 14 -28
q7 -18 5 -33q-3 -15 -9.5 -25.5t-14.5 -16z" />
    <glyph glyph-name="tou4" unicode="&#xe60c;" 
d="M1018 -79v0q0 -20 -14 -34.5t-34 -14.5h-916q-20 0 -34 14.5t-14 34.5v0v0q0 7 1 19.5t7.5 47t18.5 64t38 62t62 50.5q40 21 69 25t78 25q43 19 73.5 33t38.5 19l9 4l1 97q-4 3 -10.5 10.5t-19.5 38.5t-18 71q-16 -5 -23.5 11.5t-8.5 38.5q0 3 -1.5 17t-2 23.5t0.5 21
t5.5 17t12.5 3.5q-11 80 -8 106q5 59 56 106.5t128 51.5q87 -4 132 -49.5t51 -108.5q2 -24 -8 -106q8 2 12.5 -3.5t5 -17t0.5 -21t-2 -23.5t-2 -17q-1 -22 -8.5 -38t-23.5 -12q-5 -40 -17 -70t-21 -40l-10 -9l1 -97q23 -13 121 -55q48 -21 77.5 -26t69.5 -26
q36 -18 62 -50.5t38 -62t18.5 -64t7.5 -47t1 -19.5v0z" />
    <glyph glyph-name="xiaoxi" unicode="&#xe690;" 
d="M860 708h-695q-40 0 -68.5 -29.5t-28.5 -71.5v-442q0 -41 28.5 -71t68.5 -30h695q40 0 68 30t28 71v442q0 42 -28 71.5t-68 29.5zM860 671q17 0 32 -10l-380 -268l-380 268q15 10 33 10h695zM920 165q0 -26 -17.5 -45t-42.5 -19h-695q-25 0 -42.5 19t-17.5 45v442
q0 13 4 25l392 -276l16 -3q4 1 6 3l392 276q5 -12 5 -25v-442zM506 353q3 -1 6 -1v0q-3 0 -6 1v0zM512 352q3 0 5 1q-2 -1 -5 -1v0z" />
    <glyph glyph-name="iconfontsuiji" unicode="&#xe68d;" 
d="M512 790q-110 0 -203.5 -54.5t-148 -148t-54.5 -203.5t54.5 -203.5t148 -148t203.5 -54.5t203.5 54.5t148 148t54.5 203.5t-54.5 203.5t-148 148t-203.5 54.5zM252 546q112 -5 167 -42q-17 -23 -30 -58q-41 31 -137 35v65zM642 222q-35 0 -72 12.5t-63 29.5q17 23 31 57
l-1 1q43 -32 105 -33v63l130 -130h-130zM642 416v63q-113 -1 -150 -106q-10 -28 -19.5 -46.5t-27 -39t-41.5 -33t-62.5 -21.5t-89.5 -11v65q43 2 74 9t48.5 15.5t30.5 24.5t17.5 27t12.5 32q11 32 25.5 56.5t38.5 47t60 35t83 12.5h130z" />
    <glyph glyph-name="love1" unicode="&#xe607;" horiz-adv-x="1184" 
d="M592 759q-55 56 -126 96.5t-136 40.5q-93 0 -169 -47t-118.5 -126.5t-42.5 -175.5q0 -40 8.5 -77t26 -72.5t29 -54t33.5 -51.5q34 -49 91 -108t112.5 -107.5t110 -91.5t86.5 -66.5t38 -27.5q27 -19 57 -19h1q31 0 56 19q13 9 39 28.5t84.5 66t111.5 93t110.5 105.5
t92.5 108q22 33 33.5 51.5t29 54t26 72.5t8.5 77q0 96 -42.5 175.5t-118.5 126.5t-169 47q-65 0 -136.5 -40t-125.5 -97z" />
    <glyph glyph-name="mv" unicode="&#xe6cf;" 
d="M853 725h-682q-47 0 -80.5 -33.5t-33.5 -79.5v-456q0 -46 33.5 -79.5t80.5 -33.5h682q47 0 80.5 33.5t33.5 79.5v456q0 46 -33.5 79.5t-80.5 33.5zM910 156q0 -25 -15.5 -40.5t-41.5 -15.5h-682q-26 0 -41.5 15.5t-15.5 40.5v456q0 25 15.5 40.5t41.5 15.5h682
q26 0 41.5 -15.5t15.5 -40.5v-456zM398 213l285 171l-285 171v-342v0z" />
    <glyph glyph-name="zhuanji" unicode="&#xe624;" 
d="M512 -71q-93 0 -177 35q-82 35 -145 98t-98 145q-35 85 -35 177q0 93 35 177q35 82 98 145t145 98q84 35 177 35t177 -35q82 -35 145 -98t98 -145q35 -85 35 -177q0 -93 -35 -177q-35 -82 -98 -145t-145 -97q-84 -36 -177 -36zM512 824q-89 0 -170.5 -35t-140.5 -94
t-94 -140.5t-35 -170.5t35 -170.5t94 -140.5t140.5 -94t170.5 -35t170.5 35t140.5 94t94 140.5t35 170.5t-35 170.5t-94 140.5t-140.5 94t-170.5 35zM512 256q-53 0 -90.5 37.5t-37.5 90.5t37.5 90.5t90.5 37.5t90.5 -37.5t37.5 -90.5t-37.5 -90.5t-90.5 -37.5zM512 496
q-46 0 -79 -33t-33 -79t33 -79t79 -33t79 33t33 79t-33 79t-79 33zM215.5 376.5q-7.5 -0.5 -7.5 7.5q0 126 89 215t215 89q8 0 8 -7.5t-8 -7.5q-120 0 -204.5 -84.5t-84.5 -204.5q0 -7 -7.5 -7.5z" />
    <glyph glyph-name="weibiaoti-" unicode="&#xe605;" 
d="M512 -128q-104 0 -199 40.5t-163.5 109t-109 163.5t-40.5 199t40.5 199t109 163.5t163.5 109t199 40.5t199 -40.5t163.5 -109t109 -163.5t40.5 -199t-40.5 -199t-109 -163.5t-163.5 -109t-199 -40.5zM512 861q-97 0 -185.5 -37.5t-152.5 -101.5t-101.5 -152.5
t-37.5 -185.5t37.5 -185.5t101.5 -152.5t152.5 -101.5t185.5 -37.5t185.5 37.5t152.5 101.5t101.5 152.5t37.5 185.5t-37.5 185.5t-101.5 152.5t-152.5 101.5t-185.5 37.5zM581 613h93v-458h-93v458zM677 153h-98v462h98v-462zM584 158h87v452h-87v-452zM350 613h93v-458
h-93v458zM445 153h-98v462h98v-462zM353 158h87v452h-87v-452z" />
    <glyph glyph-name="icon-zanting" unicode="&#xe747;" 
d="M512 -128q-104 0 -199 40.5t-163.5 109t-109 163.5t-40.5 199t40.5 199t109 163.5t163.5 109t199 40.5t199 -40.5t163.5 -109t109 -163.5t40.5 -199t-40.5 -199t-109 -163.5t-163.5 -109t-199 -40.5zM512 832q-91 0 -174 -35.5t-143 -95.5t-95.5 -143t-35.5 -174
t35.5 -174t95.5 -143t143 -95.5t174 -35.5t174 35.5t143 95.5t95.5 143t35.5 174t-35.5 174t-95.5 143t-143 95.5t-174 35.5zM347 226q2 -23 13 -38t24.5 -19t26.5 -4t22 1.5t9 2.5l287 162q16 17 22.5 34t3 28.5t-9 21t-11.5 13.5l-6 5l-260 159q-35 14 -58.5 14t-36 -10
t-18.5 -21.5t-7 -21.5l-1 -10v-317z" />
    <glyph glyph-name="erji_icon" unicode="&#xe65e;" 
d="M747 423q0 103 -68 169t-167 66q-97 0 -166 -68.5t-69 -166.5h79q32 0 55 -23t23 -55v-117q0 -32 -23.5 -54.5t-54.5 -24.5h-20h-39h-20q-32 0 -55 23t-23 56v117q0 45 40 68q-1 15 -1 20q0 109 80.5 186.5t193.5 77.5t193.5 -77.5t80.5 -186.5q0 -5 -1 -20
q40 -23 40 -68v-117q0 -33 -23 -56t-55 -23v-58q0 -8 -6 -14t-14 -6t-13.5 6t-5.5 14v58h-7h-12.5h-14.5h-6q-31 2 -54.5 24.5t-23.5 54.5v117q0 32 23 55t55 23h79zM338 188h18q16 0 27.5 11.5t11.5 28.5v117q0 16 -11.5 27.5t-27.5 11.5h-25q-15 -43 -15 -88
q0 -56 22 -108zM238 345v-117q0 -17 11.5 -28.5t27.5 -11.5h19q-19 52 -19 108q0 44 13 88h-13q-16 0 -27.5 -11.5t-11.5 -27.5zM693 384h-25q-16 0 -27.5 -11.5t-11.5 -27.5v-117q0 -17 11.5 -28.5t27.5 -11.5h18q22 52 22 108q0 45 -15 88zM786 345q0 16 -11.5 27.5
t-27.5 11.5h-13q13 -44 13 -88q0 -56 -19 -108h19q16 0 27.5 11.5t11.5 28.5v117z" />
    <glyph glyph-name="more_circle" unicode="&#xe6cb;" 
d="M512 -64q-185 0 -316.5 131.5t-131.5 316.5t131.5 316.5t316.5 131.5t316.5 -131.5t131.5 -316.5t-131.5 -316.5t-316.5 -131.5zM512 789q-110 0 -203.5 -54t-147.5 -147.5t-54 -203.5t54 -203.5t147.5 -147.5t203.5 -54t203.5 54t147.5 147.5t54 203.5t-54 203.5
t-147.5 147.5t-203.5 54zM661 355v0q-8 0 -15 7l-241 241q-6 6 -6 15t6 15t15 6t15 -6l241 -241q7 -6 7 -15t-6.5 -15.5t-15.5 -6.5v0zM509 203v0q-9 0 -15.5 6t-6.5 15t7 15l152 153q7 6 15.5 6t15 -6t6.5 -15t-7 -15l-152 -153q-6 -6 -15 -6v0zM430 138zM398 138
q0 -13 9.5 -22.5t22.5 -9.5t22.5 9.5t9.5 22.5t-9.5 22.5t-22.5 9.5t-22.5 -9.5t-9.5 -22.5z" />
    <glyph glyph-name="time" unicode="&#xe6db;" 
d="M512 -64q-91 0 -174 35.5t-143 95.5t-95.5 143t-35.5 174t35.5 174t95.5 143t143 95.5t174 35.5q153 0 274 -94q9 -6 9 -17q0 -9 -6.5 -15t-15.5 -6q-7 0 -13 5q-45 35 -117.5 59.5t-129.5 24.5h-1q-110 0 -203.5 -54t-147.5 -147.5t-54 -203.5t54 -203.5t147.5 -147.5
t203.5 -54t203.5 54t147.5 147.5t54 203.5q0 84 -33 160q-1 4 -1 9q0 14 13 19q4 2 8 2q14 0 20 -13q15 -35 25.5 -86.5t10.5 -89.5v-1q0 -91 -35.5 -174t-95.5 -143t-143 -95.5t-174 -35.5zM850 646zM818 645.5q0 -13.5 9.5 -22.5t23 -9t22.5 9t9 22.5t-9 23t-22.5 9.5
t-23 -9.5t-9.5 -23zM510 363v0q-9 0 -15 6.5t-6 15.5v256q0 9 6 15t15 6t15 -6t6 -15v-256v0q0 -9 -6 -15.5t-15 -6.5zM766 363h-256q-9 0 -15 6.5t-6 15.5t6 15t15 6h256q9 0 15 -6t6 -15t-6 -15.5t-15 -6.5z" />
  </font>
</defs>
</svg>
